<svg width="850" height="600" viewBox="0 0 850 600" fill="none" xmlns="http://www.w3.org/2000/svg">
<path d="M38.9271 597.215C38.9649 597.258 993.38 597.088 993.38 597.088C1024.8 521.743 1024.76 484.942 1028.32 441.76C1048.08 203.09 888.15 166.417 841.288 156.462C697.827 126 763.123 -24.7747 389.291 3.51695C355.034 6.11212 274.257 27.0437 246.397 40.6151C226.865 50.1024 153.318 92.6461 131.704 164.588C124.89 187.306 123.263 212.917 130.114 241.379C154.453 342.038 91.0123 336.252 44.6807 384.241C-17.1704 448.227 -10.6977 552.927 38.9271 597.215Z" fill="#FBFBFB"/>
<path d="M682.547 597.488H682.675C683.526 597.488 684.249 596.764 684.207 595.913L681.867 494.428L674.974 493.619L680.846 595.913C680.931 596.807 681.654 597.488 682.547 597.488Z" fill="#D6D6D6"/>
<path d="M722.711 597.488H722.839C723.69 597.488 724.413 596.764 724.37 595.913L722.03 494.428L715.138 493.619L721.009 595.913C721.094 596.807 721.86 597.488 722.711 597.488Z" fill="#D6D6D6"/>
<path d="M611.879 597.488H611.751C610.9 597.488 610.177 596.765 610.22 595.913L612.56 494.428L619.452 493.619L613.581 595.913C613.496 596.807 612.772 597.488 611.879 597.488Z" fill="#D6D6D6"/>
<path d="M727.307 488.128V418.569C727.307 406.352 717.393 396.433 705.183 396.433H655.106C642.895 396.433 632.982 406.352 632.982 418.569V490.767L727.307 488.128Z" fill="#D6D6D6"/>
<path d="M623.961 499.111H720.669C724.328 499.111 727.307 496.131 727.307 492.47V488.128H623.961V499.111Z" fill="#C1C1C1"/>
<path d="M612.389 499.111H685.526C688.249 499.111 690.461 496.897 690.461 494.173V493.023C690.461 490.299 688.249 488.085 685.526 488.085H612.389C609.666 488.085 607.453 490.299 607.453 493.023V494.173C607.453 496.897 609.666 499.111 612.389 499.111Z" fill="#D6D6D6"/>
<path d="M545.233 163.321H484.435C481.627 163.321 479.372 161.023 479.372 158.256V99.5101C479.372 96.7006 481.669 94.4444 484.435 94.4444H545.233C548.041 94.4444 550.296 96.7431 550.296 99.5101V158.213C550.296 161.023 547.999 163.321 545.233 163.321Z" fill="#F0A17D"/>
<path d="M542.595 160.342H487.072C484.519 160.342 482.435 158.256 482.435 155.702V102.064C482.435 99.5101 484.519 97.4243 487.072 97.4243H542.595C545.148 97.4243 547.233 99.5101 547.233 102.064V155.702C547.233 158.256 545.148 160.342 542.595 160.342Z" fill="#4A274F"/>
<path d="M513.322 103.725C513.322 102.916 513.961 102.235 514.812 102.235C515.62 102.235 516.301 102.873 516.301 103.725C516.301 104.533 515.662 105.214 514.812 105.214C514.003 105.172 513.322 104.533 513.322 103.725Z" fill="white"/>
<path d="M525.193 105.81C525.576 105.087 526.47 104.831 527.193 105.257C527.916 105.64 528.172 106.534 527.746 107.258C527.363 107.981 526.47 108.237 525.747 107.811C525.066 107.386 524.811 106.492 525.193 105.81Z" fill="white"/>
<path d="M535.362 113.856C536.042 113.43 536.936 113.601 537.404 114.282C537.829 114.963 537.659 115.857 536.978 116.325C536.298 116.751 535.404 116.58 534.936 115.899C534.468 115.218 534.681 114.324 535.362 113.856Z" fill="white"/>
<path d="M540.382 126.371C541.19 126.371 541.871 127.01 541.871 127.861C541.871 128.67 541.233 129.351 540.382 129.351C539.573 129.351 538.893 128.713 538.893 127.861C538.935 127.01 539.573 126.371 540.382 126.371Z" fill="white"/>
<path d="M537.829 140.888C538.382 141.441 538.382 142.378 537.829 142.974C537.276 143.527 536.34 143.527 535.744 142.974C535.191 142.42 535.191 141.484 535.744 140.888C536.34 140.292 537.234 140.292 537.829 140.888Z" fill="white"/>
<path d="M528.597 150.125C529.15 150.678 529.15 151.615 528.597 152.211C528.044 152.764 527.108 152.764 526.512 152.211C525.959 151.658 525.959 150.721 526.512 150.125C527.108 149.572 528.001 149.572 528.597 150.125Z" fill="white"/>
<path d="M513.322 154.893C513.322 154.084 513.961 153.403 514.812 153.403C515.62 153.403 516.301 154.041 516.301 154.893C516.301 155.744 515.662 156.383 514.812 156.383C514.003 156.383 513.322 155.744 513.322 154.893Z" fill="white"/>
<path d="M504.389 105.811C504.006 105.087 503.113 104.831 502.389 105.257C501.666 105.64 501.411 106.534 501.836 107.258C502.219 107.982 503.113 108.237 503.836 107.811C504.517 107.386 504.772 106.492 504.389 105.811Z" fill="white"/>
<path d="M494.219 113.856C493.538 113.43 492.645 113.601 492.177 114.282C491.751 114.963 491.922 115.857 492.602 116.325C493.283 116.751 494.177 116.581 494.645 115.899C495.07 115.218 494.9 114.324 494.219 113.856Z" fill="white"/>
<path d="M489.199 126.371C488.391 126.371 487.71 127.01 487.71 127.861C487.71 128.67 488.348 129.351 489.199 129.351C490.007 129.351 490.688 128.713 490.688 127.861C490.646 127.01 490.007 126.371 489.199 126.371Z" fill="white"/>
<path d="M491.752 140.888C491.199 141.441 491.199 142.378 491.752 142.974C492.305 143.527 493.241 143.527 493.837 142.974C494.39 142.42 494.39 141.484 493.837 140.888C493.241 140.292 492.305 140.292 491.752 140.888Z" fill="white"/>
<path d="M500.984 150.125C500.431 150.679 500.431 151.615 500.984 152.211C501.537 152.765 502.473 152.765 503.069 152.211C503.622 151.658 503.622 150.721 503.069 150.125C502.473 149.572 501.537 149.572 500.984 150.125Z" fill="white"/>
<path d="M514.429 127.861C514.429 127.053 515.068 126.371 515.919 126.371C516.727 126.371 517.408 127.01 517.408 127.861C517.408 128.67 516.769 129.351 515.919 129.351C515.068 129.309 514.429 128.67 514.429 127.861Z" fill="white"/>
<path d="M516.047 109.471H515.664V127.861H516.047V109.471Z" fill="white"/>
<path d="M525.073 119.679L515.335 127.33L516.071 128.267L525.809 120.617L525.073 119.679Z" fill="white"/>
<path d="M703.559 593.87C703.262 597.829 697.688 597.871 691.391 597.148C685.052 596.424 686.754 597.999 677.904 598.127C669.054 598.254 665.991 595.317 665.566 594.04C665.183 592.933 669.437 591.954 673.99 590.847C674.543 590.72 675.139 590.549 675.734 590.422C680.882 589.102 684.286 585.271 688.668 581.908C692.838 578.715 698.199 567.179 698.199 567.179L710.282 566.625C710.282 566.625 705.176 576.97 703.262 581.397C702.155 584.036 702.623 587.229 703.091 589.698C703.389 591.103 703.645 592.465 703.559 593.87Z" fill="#FDC7AF"/>
<path d="M691.391 597.105C685.052 596.381 686.754 597.956 677.904 598.084C669.054 598.212 665.991 595.274 665.566 593.997C665.183 592.891 669.437 591.911 673.99 590.805L674.032 590.89C674.032 590.89 679.734 593.955 687.009 593.231C692.965 592.635 699.007 590.166 703.134 589.698C703.389 591.06 703.645 592.422 703.559 593.827C703.262 597.829 697.688 597.871 691.391 597.105Z" fill="#4A274F"/>
<path d="M787.078 594.679C786.78 598.638 781.206 598.68 774.909 597.957C768.57 597.233 770.272 598.808 761.422 598.978C752.573 599.106 749.509 596.169 749.084 594.934C748.701 593.827 752.956 592.848 757.508 591.742C758.061 591.614 758.657 591.444 759.252 591.316C764.4 589.996 767.804 586.165 772.187 582.759C776.356 579.567 772.187 560.666 772.187 560.666L785.504 559.389C785.504 559.389 784.865 575.31 784.865 582.504C784.865 585.356 786.184 588.081 786.652 590.55C786.908 591.912 787.163 593.274 787.078 594.679Z" fill="#FDC7AF"/>
<path d="M774.909 597.957C768.57 597.233 770.272 598.808 761.422 598.978C752.573 599.106 749.509 596.169 749.084 594.934C748.701 593.828 752.956 592.848 757.508 591.742L757.551 591.827C757.551 591.827 763.252 594.892 770.527 594.126C776.484 593.53 782.525 591.018 786.61 590.592C786.865 591.955 787.12 593.317 787.035 594.721C786.78 598.638 781.206 598.68 774.909 597.957Z" fill="#4A274F"/>
<path d="M748.276 268.3C745.978 258.892 749.297 254.508 752.318 252.166C753.722 248.718 755.339 246.206 756.998 245.27C760.019 243.567 763.635 243.354 766.188 243.525C765.55 242.844 764.273 242.588 764.273 242.588C765.847 242.375 769.336 243.908 769.336 243.908C791.205 235.479 794.609 267.661 794.183 275.154C793.715 282.646 793.8 291.458 805.16 297.332C826.859 308.571 797.97 350.97 797.97 350.97C798.523 344.925 770.655 313.04 756.104 303.462C752.573 298.226 751.297 289.031 751.211 288.308C751.807 295.629 753.084 299.716 754.19 302.015C747.51 295.885 746.489 281.241 748.276 268.3Z" fill="#A9453D"/>
<path d="M756.912 303.93C756.827 303.973 763.933 307.634 769.251 306.187C774.271 304.824 777.547 298.311 777.462 298.269C775.335 297.843 774.739 294.906 774.782 282.348L773.803 282.518L757.636 285.711C757.636 285.711 758.019 290.819 758.019 295.587C758.061 299.673 757.806 303.505 756.912 303.93Z" fill="#FDC7AF"/>
<path d="M757.678 285.753C757.678 285.753 758.061 290.862 758.061 295.629C767.123 295.374 771.888 287.116 773.845 282.561L757.678 285.753Z" fill="#F0A17D"/>
<path d="M691.902 573.607C691.093 576.076 692.88 578.673 695.476 578.758L701.773 579.056L708.452 579.268C710.112 579.311 711.728 578.587 712.792 577.31C718.11 570.755 734.533 548.959 744.489 517.245C744.787 516.351 745.085 515.457 745.383 514.563C751.977 495.364 765.592 471.313 772.782 449.517C773.931 446.027 774.952 442.791 775.888 439.684C776.186 438.705 776.484 437.726 776.739 436.747C782.015 418.357 783.547 406.267 784.993 393.368L733.129 393.794C733.129 393.752 722.195 478.677 691.902 573.607Z" fill="#4A274F"/>
<path d="M740.405 363.953C740.533 388.643 736.789 399.243 736.789 399.243C736.789 399.243 758.998 410.524 785.376 402.223C785.674 402.138 807.245 397.2 807.245 397.2C806.82 396.221 802.863 379.576 802.437 378.64C796.864 366.678 792.652 361.399 791.971 357.738C790.737 350.884 790.737 343.775 791.333 337.049C792.95 319.298 797.715 304.569 797.715 304.569C790.525 302.951 783.802 300.057 776.314 297.247C774.612 299.376 769.336 301.632 764.784 301.547C759.508 301.419 757.806 299.163 758.104 296.736C752.488 299.844 748.021 302.781 748.021 302.781C743.256 311.04 733.598 319.085 732.917 331.771C732.704 334.878 740.362 363.272 740.405 363.953Z" fill="white"/>
<path d="M784.993 366.678C787.248 369.87 791.587 389.41 802.437 391.836C796.863 377.916 792.651 371.828 791.97 367.571C790.736 359.568 790.736 351.31 791.332 343.52C787.716 337.177 784.993 332.835 784.993 332.835C784.695 331.813 779.249 314.871 777.505 330.025C775.718 345.18 782.44 363.102 784.993 366.678Z" fill="#5F9AA8"/>
<path d="M754.658 290.308C754.658 290.308 776.058 290.649 776.058 277.325C776.058 264 778.824 255.061 765.166 254.252C751.509 253.443 748.829 258.552 747.765 262.979C746.701 267.449 749.084 289.883 754.658 290.308Z" fill="#FDC7AF"/>
<path d="M755.424 253.954C755.424 253.954 761.295 269.62 770.272 271.918C779.25 274.217 783.164 271.833 783.164 271.833C783.164 271.833 776.271 266.342 774.825 256.764C774.867 256.764 759.849 246.504 755.424 253.954Z" fill="#A9453D"/>
<path d="M756.913 255.189C756.913 255.189 752.531 258.679 751.467 262.085C750.403 265.49 749.935 272.472 747.893 272.216C747.893 272.216 743.468 261.574 748.446 255.572C753.679 249.229 756.913 255.189 756.913 255.189Z" fill="#A9453D"/>
<path d="M721.003 381.066L710.877 411.929L716.664 414.228L733.342 386.983L721.003 381.066Z" fill="#FDC7AF"/>
<path d="M748.232 300.951C748.232 300.951 736.319 305.676 732.873 313.04C729.427 320.405 724.194 369.87 722.109 374.979C720.024 380.087 718.45 384.089 718.45 384.089C718.45 384.089 724.449 389.154 730.491 389.537C736.532 389.92 748.232 300.951 748.232 300.951Z" fill="#F0A17D"/>
<path d="M758.062 296.694C758.062 296.694 745.681 327.301 745.298 333.474C744.915 339.646 743.851 434.746 743.851 434.746C743.851 434.746 744.575 439.131 736.193 437.3C727.811 435.47 725.641 433.639 725.641 433.639C725.641 433.639 733.64 374.979 731.47 354.588C729.3 334.197 748.234 300.908 748.234 300.908L758.062 296.694Z" fill="#F0A17D"/>
<path d="M701.815 579.056L709.048 579.269C710.325 579.311 711.601 578.758 712.41 577.736C717.302 571.819 734.278 549.725 744.489 517.202C744.787 516.309 745.085 515.415 745.383 514.521C751.978 495.322 765.592 471.27 772.783 449.475C773.932 445.984 774.953 442.749 775.889 439.641C776.186 438.662 776.484 437.683 776.74 436.704L769.081 430.915C769.081 430.915 746.149 468.078 739.043 503.027C732.917 533.421 708.24 569.988 701.815 579.056Z" fill="#4A274F"/>
<path d="M768.315 506.305C768.187 522.396 768.953 558.239 770.91 575.778C771.081 577.396 772.442 578.588 774.059 578.588H779.462C781.76 578.588 783.462 578.587 784.568 578.545C785.546 578.545 786.397 577.821 786.568 576.842C791.928 549.428 795.8 526.696 798.608 507.029C800.948 490.554 803.075 476.464 804.692 464.289C806.309 452.072 807.458 441.812 807.841 433.171C807.883 431.809 807.968 430.489 807.968 429.212C808.011 427.935 808.011 426.658 808.011 425.423L763.21 421.039C763.805 450.88 768.4 496.429 768.315 506.305Z" fill="#4A274F"/>
<path d="M779.462 578.588C781.504 578.588 783.079 578.588 784.227 578.545C785.419 578.545 786.44 577.694 786.652 576.502C792.013 549.257 795.842 526.61 798.65 507.029C800.991 490.554 803.118 476.464 804.735 464.289C806.351 452.072 807.5 441.812 807.883 433.171L791.46 442.834C791.46 442.834 801.969 446.538 797.97 474.591C793.928 502.687 785.036 574.629 779.462 578.588Z" fill="#4A274F"/>
<path d="M777.335 432.915C777.335 432.915 780.483 444.324 791.418 442.877C802.352 441.429 817.881 434.874 817.881 434.874C817.881 434.874 813.201 420.102 807.415 400.733C800.395 377.277 791.673 347.011 787.588 327.94C786.44 322.576 785.631 318.106 785.376 314.913L776.314 297.332C776.314 297.332 762.784 327.684 762.061 335.304C761.337 342.924 777.335 432.915 777.335 432.915Z" fill="#F0A17D"/>
<path d="M788.27 334.155L776.314 297.29C776.357 297.29 791.418 301.759 798.991 305.591C798.991 305.591 803.714 311.721 806.65 325.811C806.65 325.811 809.755 359.654 802.82 372.041C802.82 372.041 780.994 376.426 746.021 364.379V356.376C746.021 356.376 784.228 358.376 792.056 359.27L788.27 334.155Z" fill="#F0A17D"/>
<path d="M777.845 351.31C778.313 363.698 781.249 387.749 807.202 400.605C807.287 400.648 807.33 400.69 807.415 400.69C800.395 377.235 791.673 346.968 787.588 327.897C782.823 335.049 777.59 344.499 777.845 351.31Z" fill="#E89B79"/>
<path d="M776.314 297.332C776.314 297.332 798.481 298.907 803.842 310.784C809.16 322.704 810.862 362.25 804.097 373.914C804.097 373.914 794.737 376.596 778.186 373.489C777.973 373.446 777.761 373.404 777.59 373.361C777.59 373.361 772.315 360.42 777.037 357.866C777.037 357.866 790.993 358.589 789.546 353.992C788.014 349.395 776.314 297.332 776.314 297.332Z" fill="#F0A17D"/>
<path d="M720.707 361.399L721.345 363.485L757.722 352.162C757.722 352.162 758.19 351.608 757.977 350.885C757.722 350.076 757.084 350.076 757.084 350.076L720.707 361.399Z" fill="#4A274F"/>
<path d="M718.111 363.357L720.706 361.399L721.387 363.485L718.111 363.357Z" fill="#37193B"/>
<path d="M712.324 411.077C712.324 411.077 703.092 416.186 701.901 420.06C700.667 423.933 701.518 432.107 702.964 431.979C704.411 431.851 706.623 423.252 707.814 422.614C709.006 421.975 710.708 420.187 710.708 421.507C710.708 422.827 709.474 425.253 710.112 425.636C710.75 426.019 712.665 422.231 713.984 421.507C715.303 420.783 715.898 414.781 717.175 413.163C718.494 411.546 712.324 411.077 712.324 411.077Z" fill="#FDC7AF"/>
<path d="M746.063 356.418C746.063 356.418 737.809 351.353 734.363 352.119C730.917 352.885 722.067 359.313 726.322 360.675C730.576 362.038 734.023 360.59 735.639 361.612C737.256 362.634 738.49 364.464 746.063 364.421C753.636 364.421 746.063 356.418 746.063 356.418Z" fill="#FDC7AF"/>
<path d="M215.516 301.802C214.112 299.12 245.681 289.499 246.192 315.85C246.192 315.85 305.331 314.402 277.08 281.411C267.295 270.003 268.316 260.552 268.613 251.783C268.911 243.014 262.529 217.472 240.618 220.026C240.618 220.026 234.874 217.685 227.726 221.389C211.474 229.86 175.054 311.508 215.516 301.802Z" fill="#262326"/>
<path d="M312.181 331.26C312.181 331.26 316.011 325.385 319.116 325.3C322.222 325.173 327.966 323.555 327.498 324.704C327.03 325.854 323.456 325.981 323.116 326.663C322.775 327.344 328.392 328.408 330.008 328.493C331.625 328.621 335.412 328.493 335.284 329.302C335.156 330.111 328.434 333.431 323.711 332.963C318.989 332.495 313.117 334.325 313.117 334.325L312.181 331.26Z" fill="#FDC7AF"/>
<path d="M256.488 333.133C256.488 333.133 258.573 337.262 262.36 342.03C266.955 347.777 273.975 354.375 282.824 355.695C287.037 356.333 291.206 355.397 294.993 353.736C305.757 348.969 313.841 337.986 313.841 337.986C315.755 332.792 312.649 329.302 312.649 329.302C312.649 329.302 290.951 334.197 288.866 333.133C286.781 332.111 274.741 297.332 271.848 292.948C268.954 288.563 259.169 286.307 259.169 286.307L256.488 333.133Z" fill="#8A5492"/>
<path d="M262.402 342.072C266.997 347.819 274.017 354.418 282.867 355.737C287.079 356.376 291.248 355.439 295.035 353.779C294.609 353.822 283.888 355.141 279.591 347.479C275.208 339.646 270.486 327.258 264.019 331.388C261.211 333.133 261.338 337.603 262.402 342.072Z" fill="#6A4370"/>
<path d="M175.48 567.647C175.48 567.647 168.842 573.692 170.161 577.991C171.438 582.291 177.437 585.143 178.245 590.422C179.054 595.658 182.287 598.552 185.18 598.552C188.073 598.552 199.05 598.552 199.05 598.552C199.05 598.552 201.178 594.849 196.03 593.742C190.839 592.635 188.924 586.463 189.222 580.716C189.562 574.969 188.754 567.349 188.754 567.349L177.777 564.795L175.48 567.647Z" fill="#4A274F"/>
<path d="M231.599 570.244C231.599 570.244 229.216 595.871 232.11 597.318L269.338 597.233C269.338 597.233 269.338 592.933 263.339 591.997C257.34 591.06 246.873 587.527 245.086 579.737C243.299 571.904 231.599 570.244 231.599 570.244Z" fill="#4A274F"/>
<path d="M205.049 386.344C212.707 369.146 217.388 364.208 216.494 358.887C215.813 354.928 218.536 284.859 218.536 284.859C219.43 284.561 221.259 284.306 222.28 284.093C225.429 283.412 228.024 281.198 229.088 278.133C230.407 274.472 231.428 269.066 231.385 262.34L232.364 262.553L248.872 265.831C248.872 265.831 248.489 271.024 248.489 275.92C248.489 275.962 248.489 276.005 248.489 276.047C248.489 280.304 251.254 284.05 255.339 285.242C257.424 285.838 259.253 286.349 259.253 286.349C259.253 286.349 265.295 303.675 266.486 321.426C267.635 339.22 255.467 346.925 266.571 382.471C277.888 418.74 200.837 395.88 205.049 386.344Z" fill="#FDC7AF"/>
<path d="M248.873 265.831C248.873 265.831 248.49 271.024 248.49 275.92C239.257 275.664 234.364 267.236 232.365 262.553L248.873 265.831Z" fill="#F0A17D"/>
<path d="M251.977 270.471C251.977 270.471 230.151 270.812 230.109 257.232C230.109 243.61 227.258 234.5 241.213 233.691C255.168 232.882 257.891 238.076 258.998 242.631C260.104 247.186 257.636 270.003 251.977 270.471Z" fill="#FDC7AF"/>
<path d="M251.17 233.308C251.17 233.308 245.171 249.271 236.023 251.655C226.833 253.997 222.877 251.57 222.877 251.57C222.877 251.57 229.897 245.994 231.386 236.203C231.343 236.203 246.66 225.731 251.17 233.308Z" fill="#262326"/>
<path d="M249.681 234.628C249.681 234.628 254.106 236.288 255.935 239.523C257.722 242.673 259.254 246.888 258.871 252.038C258.871 252.038 263.381 241.183 258.318 235.053C252.957 228.498 249.681 234.628 249.681 234.628Z" fill="#262326"/>
<path d="M202.922 315.85C202.922 315.85 202.369 323.683 202.922 333.048C203.305 339.263 209.602 347.607 210.495 349.692C212.75 354.886 215.26 355.695 215.26 355.695L234.789 360.505L241.682 362.208L263.338 355.737C263.338 355.737 273.208 328.152 269.252 312.657C265.295 297.119 259.253 286.349 259.253 286.349C259.253 286.349 241.554 303.675 218.536 284.859L202.922 315.85Z" fill="#8A5492"/>
<path d="M208.666 335.602C209.049 341.817 209.602 347.607 210.495 349.692C212.75 354.886 215.261 355.695 215.261 355.695L234.789 360.505L243.299 357.993C243.299 357.993 214.963 353.694 218.111 329.302L208.666 335.602Z" fill="#F2CCAA"/>
<path d="M261.977 359.909C261.977 359.909 272.699 393.326 273.38 404.734C274.06 416.1 252.872 566.413 252.021 571.649C251.213 576.587 245.086 579.737 245.086 579.737C245.086 579.737 242.278 581.397 238.236 580.248C232.663 578.672 230.876 576.799 230.876 576.799C230.876 576.799 222.537 469.61 227.685 431.34C232.876 393.07 232.918 359.951 232.918 359.951H261.977V359.909Z" fill="#F0A17D"/>
<path d="M216.495 358.887C216.495 358.887 200.114 380.853 198.583 395.71C197.051 410.566 196.2 462.756 192.924 477.23C189.69 491.703 177.735 519.586 177.735 564.752C177.735 564.752 178.969 567.349 182.798 568.711C184.032 569.137 185.648 569.563 187.265 569.946C190.414 570.669 193.69 569.137 195.094 566.2C203.178 549.938 228.918 497.45 230.237 486.553C231.173 478.847 239.299 427.807 256.999 397.881C261.253 390.687 254.403 362.123 254.403 362.123L216.495 358.887Z" fill="#F0A17D"/>
<path d="M263.678 354.758C263.678 354.758 259.381 358.164 250.829 358.334C240.618 358.547 215.261 355.737 215.261 355.737C215.261 355.737 214.154 358.887 214.197 362.208C214.197 362.208 245.128 369.998 263.083 363.357C263.04 363.315 265.38 358.973 263.678 354.758Z" fill="#4A274F"/>
<path d="M248.617 361.867C248.617 358.972 250.702 356.589 253.297 356.589C255.85 356.589 257.977 358.972 257.977 361.867C257.977 364.762 255.893 367.146 253.297 367.146C250.702 367.146 248.617 364.762 248.617 361.867ZM250.149 361.867C250.149 363.91 251.553 365.613 253.255 365.613C254.957 365.613 256.361 363.953 256.361 361.867C256.361 359.824 254.957 358.121 253.255 358.121C251.553 358.121 250.149 359.781 250.149 361.867Z" fill="white"/>
<path d="M181.938 360.753L213.641 388.373L251.416 344.966L219.713 317.346L181.938 360.753Z" fill="#E8E8E8"/>
<path d="M222.409 360.888C222.409 360.888 234.024 362.25 233.981 365.017C233.939 367.784 231.088 373.446 229.642 373.702C228.195 373.957 220.196 366.039 220.196 366.039L222.409 360.888Z" fill="#FDC7AF"/>
<path d="M218.536 284.859C218.536 284.859 203.049 285.966 197.093 300.397C191.136 314.871 179.862 339.135 179.862 343.222C179.862 347.309 186.158 359.909 219.983 367.146C219.983 367.146 223.472 363.442 223.259 360.548C223.259 360.548 202.156 342.413 202.198 340.285C202.326 336.283 205.645 330.962 224.195 312.402C229.258 307.336 218.536 284.859 218.536 284.859Z" fill="#8A5492"/>
<path d="M389.871 597.744H389.743C388.892 597.744 388.169 597.02 388.212 596.169L390.552 494.683L397.444 493.875L391.573 596.169C391.488 597.063 390.722 597.744 389.871 597.744Z" fill="#D6D6D6"/>
<path d="M349.665 597.744H349.537C348.686 597.744 347.963 597.02 348.005 596.169L350.345 494.683L357.238 493.875L351.367 596.169C351.281 597.063 350.558 597.744 349.665 597.744Z" fill="#D6D6D6"/>
<path d="M460.541 597.744H460.669C461.52 597.744 462.243 597.02 462.201 596.169L459.861 494.684L452.968 493.875L458.839 596.169C458.925 597.063 459.648 597.744 460.541 597.744Z" fill="#D6D6D6"/>
<path d="M345.113 488.383V418.825C345.113 406.608 355.026 396.689 367.237 396.689H417.314C429.525 396.689 439.438 406.608 439.438 418.825V491.022L345.113 488.383Z" fill="#D6D6D6"/>
<path d="M448.458 499.366H351.75C348.091 499.366 345.113 496.386 345.113 492.725V488.383H448.458V499.366Z" fill="#C1C1C1"/>
<path d="M460.03 499.366H386.893C384.17 499.366 381.958 497.152 381.958 494.428V493.279C381.958 490.554 384.17 488.341 386.893 488.341H460.03C462.753 488.341 464.966 490.554 464.966 493.279V494.428C464.966 497.195 462.753 499.366 460.03 499.366Z" fill="#D6D6D6"/>
<path d="M457.222 471.057C450.031 483.53 441.012 488.383 441.012 488.383H403.486C403.486 488.383 462.668 461.522 457.222 471.057Z" fill="#4A274F"/>
<path d="M428.376 567.732C427.398 568.839 427.27 570.116 427.738 571.436C428.632 573.905 431.61 576.672 435.014 579.439C435.439 579.78 435.864 580.12 436.162 580.418C436.247 580.503 436.332 580.588 436.418 580.673C436.503 580.716 436.545 580.801 436.63 580.844C439.821 583.781 438.63 584.462 444.374 590.464C450.926 597.318 455.436 597.403 456.755 596.807C457.861 596.296 455.649 592.635 453.181 588.591C453.053 588.379 452.926 588.208 452.84 587.995C452.5 587.442 452.202 586.889 451.862 586.378C449.011 581.482 449.735 579.184 450.415 571.862C450.968 565.944 459.648 538.743 459.648 538.743L447.054 536.572C447.054 536.572 443.268 558.239 439.098 561.56C436.886 563.348 434.375 563.348 432.205 564.667C432.035 564.753 431.908 564.838 431.78 564.965C430.589 565.774 429.355 566.626 428.376 567.732Z" fill="#FDC7AF"/>
<path d="M428.376 567.732C427.398 568.839 427.27 570.116 427.738 571.436C428.844 573.905 431.737 576.672 435.056 579.396C435.482 579.737 435.864 580.077 436.205 580.418C436.29 580.503 436.375 580.588 436.46 580.673C436.545 580.716 436.588 580.801 436.673 580.844C439.864 583.781 438.673 584.462 444.416 590.464C450.968 597.318 455.478 597.403 456.797 596.807C457.903 596.296 455.691 592.635 453.223 588.591C451.947 588.123 445.99 585.697 441.523 579.95C437.566 574.884 434.928 568.413 432.248 564.667C432.078 564.752 431.95 564.838 431.823 564.965C430.589 565.774 429.355 566.626 428.376 567.732Z" fill="#262326"/>
<path d="M529.806 559.857C530.572 563.731 536.103 563.092 542.315 561.602C548.484 560.07 547.037 561.9 555.844 560.921C564.652 559.942 567.289 556.664 567.587 555.345C567.843 554.195 563.46 553.77 558.823 553.216C558.227 553.131 557.631 553.088 557.078 553.003C551.803 552.322 547.973 548.959 543.166 546.15C538.656 543.51 531.891 532.74 531.891 532.74L519.808 533.677C519.808 533.677 526.147 543.298 528.572 547.469C530.019 549.938 529.934 553.174 529.764 555.685C529.593 557.09 529.508 558.495 529.806 559.857Z" fill="#FDC7AF"/>
<path d="M542.273 561.602C548.442 560.07 546.995 561.9 555.802 560.921C564.609 559.942 567.247 556.664 567.545 555.345C567.8 554.195 563.418 553.77 558.781 553.216L558.738 553.301C558.738 553.301 553.462 557.047 546.144 557.218C540.188 557.345 533.848 555.643 529.721 555.728C529.636 557.09 529.551 558.495 529.807 559.857C530.572 563.773 536.103 563.092 542.273 561.602Z" fill="#262326"/>
<path d="M483.558 482.679L472.283 513.073L457.562 552.748C457.562 552.748 453.563 553.131 449.734 552.024C446.203 551.003 442.161 548.321 442.161 548.321C442.161 548.321 446.245 505.751 453.861 481.274C455.818 475.016 457.988 469.908 460.413 467.056C472.241 453.093 483.558 482.679 483.558 482.679Z" fill="#4A274F"/>
<path d="M472.071 434.405C464.668 432.021 443.608 435.086 422.42 439.216L417.995 431.894L372.257 428.318C372.257 428.318 357.154 461.82 365.408 483.147C366.641 486.297 369.024 488.298 373.151 488.341H373.832C373.832 488.341 401.061 488.341 409.911 488.341C432.673 488.341 458.031 472.675 461.35 472.037C466.71 470.972 468.88 481.7 474.241 493.023C479.602 504.304 524.786 543.042 524.786 543.042C524.786 543.042 531.721 543.127 534.614 542.02C537.678 540.871 538.826 539.381 538.826 539.381C538.826 539.381 488.749 439.812 472.071 434.405Z" fill="#4A274F"/>
<path d="M416.208 298.694C410.336 295.629 401.444 295.204 399.997 294.991C382.681 292.65 372.215 317.851 371.619 325.513C370.47 339.603 363.067 341.732 352.558 350.544C331.54 368.21 337.71 388.771 349.197 396.391C356.09 400.988 368.215 396.391 368.215 396.391C368.386 396.519 401.444 377.916 417.697 368.934C442.161 365.443 431.141 306.527 416.208 298.694Z" fill="#262326"/>
<path d="M404.082 361.271C404.167 361.314 396.083 364.081 390.68 361.697C385.574 359.441 381.745 351.055 381.83 351.055C384.128 350.927 386.681 348.926 388.638 335.645L389.616 335.985L406.167 341.945C406.167 341.945 404.975 347.266 404.21 352.332C403.529 356.589 403.188 360.675 404.082 361.271Z" fill="#FDC7AF"/>
<path d="M406.166 341.987C406.166 341.987 404.975 347.309 404.209 352.374C394.679 350.672 390.977 341.179 389.616 336.028L406.166 341.987Z" fill="#F0A17D"/>
<path d="M408.635 347.266C408.635 347.266 385.958 344.201 388.085 330.11C390.212 316.02 388.681 306.144 403.274 307.464C417.825 308.826 419.825 314.615 420.293 319.468C420.676 324.364 414.549 347.692 408.635 347.266Z" fill="#FDC7AF"/>
<path d="M419.398 311.763C419.398 311.763 404.89 324.279 395.019 325.3C385.148 326.322 381.404 323.129 381.404 323.129C381.404 323.129 387.233 318.276 390.722 310.486C391.743 308.187 393.913 306.612 396.423 306.399C403.528 305.803 416.888 305.505 419.398 311.763Z" fill="#262326"/>
<path d="M410.336 310.656C410.336 310.656 415.186 315.339 416.718 318.83C418.207 322.193 418.632 330.238 417.441 333.431C417.441 333.431 425.014 318.702 420.717 311.55C416.207 303.973 410.336 310.656 410.336 310.656Z" fill="#262326"/>
<path d="M423.143 394.688C422.462 440.578 422.973 431 417.953 435.342C416.761 436.406 413.358 437.002 408.89 437.3C394.807 438.237 370.088 435.895 369.152 433.299C365.918 424.316 368.216 421.507 365.493 407.714C365.195 406.267 364.855 404.649 364.472 402.947C362.217 393.496 360.004 390.261 368.046 375.064C375.321 361.271 382.852 350.118 383.533 350.501C402.678 361.867 404.253 352.332 404.253 352.332C404.253 352.332 423.484 372.297 423.143 394.688Z" fill="white"/>
<path d="M472.283 513.031L457.562 552.705C457.562 552.705 453.563 553.088 449.734 551.982C446.203 550.96 442.161 548.278 442.161 548.278C442.161 548.278 446.245 505.709 453.861 481.231L472.283 513.031Z" fill="#4A274F"/>
<path d="M404.167 352.332C404.167 352.332 423.866 355.695 426.206 364.166C428.504 372.68 442.161 422.571 442.161 422.571C442.161 422.571 432.12 424.359 427.525 419.761C422.888 415.121 411.4 376.767 411.4 376.767L404.167 352.332Z" fill="white"/>
<path d="M408.89 437.3C394.807 438.237 370.087 435.895 369.151 433.299C365.918 424.316 368.215 421.507 365.492 407.714L372.257 388.601C372.257 388.601 371.151 409.885 377.405 415.505C383.66 421.124 403.103 426.317 406.124 431C407.613 433.256 408.592 435.512 408.89 437.3Z" fill="#F7F7F7"/>
<path d="M392.765 428.36C392.765 428.36 406.635 425.253 408.89 426.487C411.145 427.722 416.591 432.192 417.272 433.767C417.953 435.342 412.294 432.575 410.422 432.106C409.231 431.766 406.082 432.873 404.508 433.384C397.956 435.555 393.957 434.448 393.957 434.448L392.765 428.36Z" fill="#FDC7AF"/>
<path d="M383.447 350.544C383.447 350.544 364.812 351.693 358.344 360.675C349.282 373.361 331.242 427.339 341.581 434.575C353.196 442.706 394.509 436.704 394.509 436.704C394.509 436.704 395.87 430.276 393.956 427.168C392.041 424.061 360.982 419.038 359.536 417.59C358.089 416.143 377.448 389.622 377.448 385.323C377.49 380.981 383.447 350.544 383.447 350.544Z" fill="white"/>
<path d="M409.528 430.361C409.528 430.361 412.421 434.107 413.399 434.576C414.335 435.044 414.974 434.916 414.974 434.916L413.017 431.383L409.528 430.361Z" fill="#FDC7AF"/>
<path d="M408.889 426.487L417.356 430.574C417.356 430.574 417.016 431.17 415.952 431.127C414.931 431.085 412.293 430.106 412.293 430.106L408.889 426.487Z" fill="#FDC7AF"/>
<path d="M413.399 440.322H480.282L500.406 390.261H433.608L413.399 440.322Z" fill="#F0A17D"/>
<path d="M481.048 438.364H392.764V440.322H480.282L481.048 438.364Z" fill="#CC8E72"/>
<path d="M463.391 415.292C463.902 413.546 462.881 412.099 461.136 412.099C459.392 412.099 457.563 413.546 457.052 415.292C456.541 417.037 457.563 418.484 459.307 418.484C461.051 418.484 462.881 417.037 463.391 415.292Z" fill="white"/>
<path d="M762.703 599.617H762.916C764.064 599.617 765 598.638 764.958 597.403L761.852 455.307L752.747 454.2L760.533 597.446C760.576 598.638 761.512 599.617 762.703 599.617Z" fill="#C1C1C1"/>
<path d="M393.104 599.617H392.891C391.743 599.617 390.807 598.638 390.849 597.403L393.955 455.307L403.06 454.2L395.274 597.403C395.232 598.638 394.253 599.617 393.104 599.617Z" fill="#C1C1C1"/>
<path d="M773.681 457.904H383.659C380.468 457.904 377.873 455.307 377.873 452.114V446.538C377.873 443.345 380.468 440.748 383.659 440.748H773.681C776.872 440.748 779.468 443.345 779.468 446.538V452.114C779.468 455.35 776.872 457.904 773.681 457.904Z" fill="#C1C1C1"/>
<path d="M644.512 440.791H577.671L557.547 390.729H624.302L644.512 440.791Z" fill="#4A274F"/>
<path d="M576.863 438.833H665.189V440.791H577.672L576.863 438.833Z" fill="#37193C"/>
<path d="M594.52 415.76C594.01 414.015 595.031 412.568 596.775 412.568C598.519 412.568 600.349 414.015 600.859 415.76C601.37 417.506 600.349 418.953 598.605 418.953C596.86 418.953 595.031 417.506 594.52 415.76Z" fill="white"/>
<path d="M1030 598.407V598.815C1030 599.469 1029.47 600 1028.82 600H1.17608C0.534585 600 0 599.469 0 598.815V598.407C0 597.753 0.534585 597.222 1.17608 597.222H1028.82C1029.47 597.222 1030 597.753 1030 598.407Z" fill="#C1C1C1"/>
</svg>
