<svg width="22" height="23" viewBox="0 0 22 23" fill="none" xmlns="http://www.w3.org/2000/svg">
<path d="M17.4168 4.16675H4.5835C3.85415 4.16675 3.15468 4.45648 2.63895 4.9722C2.12323 5.48793 1.8335 6.1874 1.8335 6.91675V16.0834C1.8335 16.8128 2.12323 17.5122 2.63895 18.028C3.15468 18.5437 3.85415 18.8334 4.5835 18.8334H17.4168C18.1462 18.8334 18.8456 18.5437 19.3614 18.028C19.8771 17.5122 20.1668 16.8128 20.1668 16.0834V6.91675C20.1668 6.1874 19.8771 5.48793 19.3614 4.9722C18.8456 4.45648 18.1462 4.16675 17.4168 4.16675ZM16.8027 6.00008L11.0002 10.3542L5.19766 6.00008H16.8027ZM17.4168 17.0001H4.5835C4.34038 17.0001 4.10722 16.9035 3.93532 16.7316C3.76341 16.5597 3.66683 16.3265 3.66683 16.0834V7.14591L10.4502 12.2334C10.6088 12.3524 10.8018 12.4167 11.0002 12.4167C11.1985 12.4167 11.3915 12.3524 11.5502 12.2334L18.3335 7.14591V16.0834C18.3335 16.3265 18.2369 16.5597 18.065 16.7316C17.8931 16.9035 17.6599 17.0001 17.4168 17.0001Z" fill="#7F7F7F"/>
</svg>
