<svg width="22" height="22" viewBox="0 0 22 22" fill="none" xmlns="http://www.w3.org/2000/svg">
<path d="M17.4167 3.66675H4.58333C3.85399 3.66675 3.15452 3.95648 2.63879 4.4722C2.12307 4.98793 1.83333 5.6874 1.83333 6.41675V15.5834C1.83333 16.3128 2.12307 17.0122 2.63879 17.528C3.15452 18.0437 3.85399 18.3334 4.58333 18.3334H17.4167C18.146 18.3334 18.8455 18.0437 19.3612 17.528C19.8769 17.0122 20.1667 16.3128 20.1667 15.5834V6.41675C20.1667 5.6874 19.8769 4.98793 19.3612 4.4722C18.8455 3.95648 18.146 3.66675 17.4167 3.66675ZM16.8025 5.50008L11 9.85425L5.1975 5.50008H16.8025ZM17.4167 16.5001H4.58333C4.34022 16.5001 4.10706 16.4035 3.93515 16.2316C3.76324 16.0597 3.66667 15.8265 3.66667 15.5834V6.64591L10.45 11.7334C10.6087 11.8524 10.8017 11.9167 11 11.9167C11.1983 11.9167 11.3913 11.8524 11.55 11.7334L18.3333 6.64591V15.5834C18.3333 15.8265 18.2368 16.0597 18.0648 16.2316C17.8929 16.4035 17.6598 16.5001 17.4167 16.5001Z" fill="white"/>
</svg>
