<svg width="32" height="32" viewBox="0 0 32 32" fill="none" xmlns="http://www.w3.org/2000/svg">
<g opacity="0.5">
<path d="M10.001 9.25H22.0075C22.421 9.25 22.75 9.57906 22.75 9.9925V22.0075C22.75 22.4125 22.421 22.75 22.0075 22.75H18.565V17.5188H20.32L20.5816 15.4853H18.565V14.1859C18.565 13.5953 18.7338 13.1903 19.5775 13.1903H20.6575V11.3678C20.4719 11.3425 19.8307 11.2919 19.0882 11.2919C17.5272 11.2919 16.4641 12.2369 16.4641 13.9834V15.4853H14.7007V17.5188H16.4641V22.75H10.001C9.80326 22.75 9.61352 22.6721 9.47294 22.533C9.33235 22.394 9.25225 22.2052 9.25003 22.0075V9.9925C9.25003 9.57906 9.58753 9.25 10.001 9.25Z" fill="white"/>
</g>
</svg>
