<svg width="22" height="22" viewBox="0 0 22 22" fill="none" xmlns="http://www.w3.org/2000/svg">
<path d="M11 1C5.47702 1 1 5.47702 1 11C1 16.523 5.47702 21 11 21C16.523 21 21 16.523 21 11C21 5.47702 16.523 1 11 1ZM14.3181 15.4194C14.1609 15.5758 13.996 15.7399 13.8621 15.8742C13.7415 15.9952 13.6565 16.1444 13.6133 16.306C13.5524 16.5343 13.5032 16.7649 13.421 16.9863L12.7198 18.8754C12.1649 18.9964 11.5907 19.0645 11 19.0645V17.9605C11.0681 17.4516 10.6919 16.4984 10.0875 15.894C9.84556 15.652 9.70968 15.3238 9.70968 14.9815V13.6907C9.70968 13.2214 9.45685 12.7899 9.04597 12.5629C8.46653 12.2423 7.64234 11.7944 7.07782 11.5101C6.61492 11.277 6.18669 10.9802 5.80161 10.6331L5.76935 10.604C5.49398 10.3555 5.24948 10.0747 5.04113 9.76774C4.6629 9.2125 4.04677 8.29919 3.64637 7.70565C4.47177 5.87097 5.95927 4.39758 7.80766 3.59718L8.77581 4.08145C9.20484 4.29597 9.70968 3.98427 9.70968 3.50444V3.04879C10.0319 2.99677 10.3597 2.96371 10.6931 2.95121L11.8343 4.09234C12.0863 4.34435 12.0863 4.75282 11.8343 5.00484L11.6452 5.19355L11.2282 5.61048C11.1024 5.73629 11.1024 5.94073 11.2282 6.06653L11.4173 6.25564C11.5431 6.38145 11.5431 6.58589 11.4173 6.71169L11.0948 7.03427C11.0342 7.09472 10.9521 7.12866 10.8665 7.12863H10.504C10.4202 7.12863 10.3395 7.16129 10.279 7.22016L9.87903 7.60927C9.83 7.65702 9.79741 7.71911 9.78596 7.78659C9.7745 7.85406 9.78479 7.92343 9.81532 7.98468L10.444 9.24234C10.5512 9.45685 10.3952 9.70927 10.1556 9.70927H9.92823C9.8504 9.70927 9.7754 9.68105 9.71694 9.63024L9.34274 9.30524C9.25806 9.23178 9.15572 9.18163 9.04579 9.15971C8.93585 9.13779 8.8221 9.14487 8.71573 9.18024L7.45887 9.59919C7.36291 9.63119 7.27946 9.69257 7.22033 9.77464C7.16121 9.85671 7.1294 9.9553 7.12944 10.0565C7.12944 10.2391 7.23266 10.4056 7.39597 10.4875L7.84274 10.7109C8.22218 10.9008 8.64073 10.9996 9.06492 10.9996C9.48911 10.9996 9.97581 12.1 10.3552 12.2899H13.0468C13.3891 12.2899 13.7169 12.4258 13.9593 12.6677L14.5113 13.2198C14.7419 13.4505 14.8714 13.7633 14.8714 14.0895C14.8713 14.3367 14.8224 14.5814 14.7274 14.8096C14.6325 15.0378 14.4934 15.2451 14.3181 15.4194ZM17.8145 11.7359C17.581 11.6774 17.3774 11.5343 17.244 11.3339L16.519 10.2464C16.4129 10.0875 16.3563 9.90072 16.3563 9.70968C16.3563 9.51863 16.4129 9.33187 16.519 9.17298L17.3089 7.98831C17.4024 7.84839 17.5306 7.73468 17.6815 7.65968L18.2048 7.39798C18.75 8.48347 19.0645 9.70444 19.0645 11C19.0645 11.3496 19.0347 11.6919 18.9911 12.0298L17.8145 11.7359Z" fill="white"/>
</svg>
