<svg width="22" height="22" viewBox="0 0 22 22" fill="none" xmlns="http://www.w3.org/2000/svg">
<path d="M10.7 2.01812C6.31833 2.30229 3 6.14312 3 10.534V16.6665C3 18.1881 4.22833 19.4165 5.75 19.4165H6.66667C7.675 19.4165 8.5 18.5915 8.5 17.5831V13.9165C8.5 12.9081 7.675 12.0831 6.66667 12.0831H4.83333V10.5156C4.83333 6.99562 7.54667 3.93395 11.0575 3.83312C11.9162 3.80722 12.7714 3.95406 13.5724 4.26492C14.3733 4.57578 15.1036 5.04434 15.72 5.64279C16.3364 6.24125 16.8263 6.95741 17.1607 7.74879C17.4951 8.54017 17.6672 9.39066 17.6667 10.2498V12.0831H15.8333C14.825 12.0831 14 12.9081 14 13.9165V17.5831C14 18.5915 14.825 19.4165 15.8333 19.4165H16.75C18.2717 19.4165 19.5 18.1881 19.5 16.6665V10.2498C19.5 5.51062 15.5033 1.70645 10.7 2.01812Z" fill="white"/>
</svg>
