<svg width="48" height="48" viewBox="0 0 48 48" fill="none" xmlns="http://www.w3.org/2000/svg">
<path d="M22.7333 4.04106C12.6422 4.69371 5 13.515 5 23.5995V37.684C5 41.1789 7.82889 44 11.3333 44H13.4444C15.7667 44 17.6667 42.1052 17.6667 39.7894V31.3681C17.6667 29.0522 15.7667 27.1575 13.4444 27.1575H9.22222V23.5574C9.22222 15.4729 15.4711 8.44117 23.5567 8.20959C25.5344 8.1501 27.5039 8.48734 29.3485 9.20131C31.193 9.91527 32.875 10.9914 34.2946 12.3659C35.7142 13.7404 36.8425 15.3852 37.6126 17.2028C38.3827 19.0203 38.779 20.9736 38.7778 22.9468V27.1575H34.5556C32.2333 27.1575 30.3333 29.0522 30.3333 31.3681V39.7894C30.3333 42.1052 32.2333 44 34.5556 44H36.6667C40.1711 44 43 41.1789 43 37.684V22.9468C43 12.0623 33.7956 3.32525 22.7333 4.04106Z" fill="#F0A17D"/>
</svg>
