<svg width="163" height="40" viewBox="0 0 163 40" fill="none" xmlns="http://www.w3.org/2000/svg">
<path d="M64.0033 24.8572V15.0992H54.5548V24.8572H49.3888V1.05717H54.5548V10.1692H64.0033V1.05717H69.2034V24.8572H64.0033Z" fill="white"/>
<path d="M83.0442 24.8572V1.05717H93.5803C96.4126 1.05717 98.4972 1.79384 99.834 3.26717C101.193 4.7405 101.873 6.55384 101.873 8.70718C101.873 9.63651 101.715 10.5432 101.397 11.4272C101.08 12.2885 100.604 13.0932 99.9699 13.8412C99.3355 14.5892 98.4632 15.1898 97.3529 15.6432C96.2427 16.0965 94.9851 16.3232 93.5803 16.3232H88.2103V24.8572H83.0442ZM93.7842 11.4612C94.6906 11.4612 95.3703 11.1892 95.8235 10.6452C96.2766 10.1012 96.5032 9.45518 96.5032 8.70718C96.5032 7.98184 96.288 7.34717 95.8575 6.80317C95.427 6.23651 94.7359 5.95317 93.7842 5.95317H88.2103V11.4612H93.7842Z" fill="white"/>
<path d="M122.823 25.1972C121.033 25.1972 119.458 24.8459 118.098 24.1432C116.762 23.4179 115.719 22.4545 114.972 21.2532C114.224 20.0518 113.669 18.7598 113.306 17.3772C112.966 15.9945 112.796 14.5212 112.796 12.9572C112.796 11.5292 112.978 10.1352 113.34 8.77518C113.703 7.39251 114.258 6.08917 115.006 4.86517C115.753 3.61851 116.796 2.62117 118.132 1.87317C119.492 1.1025 121.055 0.717169 122.823 0.717169C124.975 0.717169 126.811 1.2725 128.329 2.38317C129.847 3.49384 130.923 4.8425 131.557 6.42917L126.935 8.50317C126.278 7.52851 125.644 6.81451 125.032 6.36117C124.443 5.90784 123.706 5.68117 122.823 5.68117C121.984 5.68117 121.248 5.90784 120.614 6.36117C119.979 6.79184 119.492 7.38117 119.152 8.12917C118.812 8.85451 118.563 9.62518 118.404 10.4412C118.246 11.2345 118.166 12.0732 118.166 12.9572C118.166 14.1585 118.314 15.2918 118.608 16.3572C118.926 17.4225 119.447 18.3405 120.172 19.1112C120.919 19.8592 121.803 20.2332 122.823 20.2332C124.296 20.2332 125.644 19.2132 126.867 17.1732L131.591 18.9412C129.666 23.1119 126.743 25.1972 122.823 25.1972Z" fill="white"/>
<path d="M152.174 25.2652C149.862 25.2652 147.868 24.6532 146.192 23.4292C144.538 22.1825 143.348 20.4712 142.623 18.2952L147.245 16.5612C147.789 17.7172 148.503 18.6465 149.387 19.3492C150.27 20.0292 151.245 20.3692 152.309 20.3692C153.42 20.3692 154.292 20.1652 154.926 19.7572C155.561 19.3265 155.878 18.7145 155.878 17.9212C155.878 17.3998 155.64 16.9352 155.164 16.5272C154.711 16.1192 154.224 15.8245 153.703 15.6432C153.204 15.4392 152.423 15.1672 151.358 14.8272C150.655 14.6005 150.123 14.4305 149.76 14.3172C149.421 14.1812 148.922 13.9772 148.265 13.7052C147.608 13.4332 147.109 13.1838 146.77 12.9572C146.43 12.7305 146.022 12.4245 145.546 12.0392C145.07 11.6538 144.708 11.2572 144.458 10.8492C144.232 10.4185 144.028 9.90851 143.847 9.31917C143.665 8.70717 143.575 8.06117 143.575 7.38117C143.575 5.47717 144.322 3.87917 145.818 2.58717C147.313 1.29517 149.341 0.64917 151.902 0.64917C154.031 0.64917 155.821 1.2045 157.272 2.31517C158.722 3.42584 159.685 4.85384 160.161 6.59917L155.538 8.09517C154.791 6.39517 153.488 5.54517 151.63 5.54517C149.704 5.54517 148.741 6.19117 148.741 7.48317C148.741 7.77784 148.831 8.03851 149.013 8.26517C149.194 8.49184 149.522 8.71851 149.998 8.94518C150.474 9.17184 150.859 9.34184 151.154 9.45518C151.471 9.56851 152.015 9.76118 152.785 10.0332C153.601 10.3052 154.224 10.5205 154.655 10.6792C155.108 10.8378 155.72 11.0872 156.49 11.4272C157.26 11.7445 157.861 12.0958 158.291 12.4812C158.744 12.8438 159.209 13.2858 159.685 13.8072C160.161 14.3285 160.5 14.9405 160.704 15.6432C160.931 16.3458 161.044 17.1165 161.044 17.9552C161.044 20.1992 160.206 21.9785 158.529 23.2932C156.852 24.6079 154.734 25.2652 152.174 25.2652Z" fill="white"/>
<path d="M49.7107 33.6058V38.2858H48.7511V33.6058H47.1597V32.6858H51.3021V33.6058H49.7107Z" fill="white"/>
<path d="M52.299 38.2858V32.6858H55.9457V33.5898H53.2587V34.9418H54.914V35.8458H53.2587V37.3818H56.1216V38.2858H52.299Z" fill="white"/>
<path d="M59.1436 38.3818C58.8077 38.3818 58.5038 38.3258 58.2319 38.2138C57.96 38.1018 57.7361 37.9525 57.5602 37.7658C57.3896 37.5792 57.2456 37.3578 57.1283 37.1018C57.0111 36.8458 56.9257 36.5845 56.8724 36.3178C56.8245 36.0512 56.8005 35.7738 56.8005 35.4858C56.8005 35.1445 56.8431 34.8112 56.9284 34.4858C57.0137 34.1605 57.1443 33.8538 57.3203 33.5658C57.4962 33.2725 57.7414 33.0378 58.056 32.8618C58.3705 32.6805 58.7331 32.5898 59.1436 32.5898C59.6394 32.5898 60.0553 32.7072 60.3911 32.9418C60.727 33.1712 60.9616 33.4512 61.0949 33.7818L60.2312 34.1738C60.0819 33.9445 59.9246 33.7765 59.7594 33.6698C59.5994 33.5632 59.3942 33.5098 59.1436 33.5098C58.8984 33.5098 58.6824 33.5712 58.4958 33.6938C58.3146 33.8112 58.1733 33.9712 58.072 34.1738C57.976 34.3712 57.9041 34.5818 57.8561 34.8058C57.8134 35.0245 57.7921 35.2512 57.7921 35.4858C57.7921 36.0085 57.9067 36.4672 58.136 36.8618C58.3705 37.2565 58.7064 37.4538 59.1436 37.4538C59.5701 37.4538 59.9273 37.2138 60.2152 36.7338L61.1029 37.0698C60.7137 37.9445 60.0606 38.3818 59.1436 38.3818Z" fill="white"/>
<path d="M65.5615 38.2858V35.8538H63.1144V38.2858H62.1547V32.6858H63.1144V34.9498H65.5615V32.6858H66.5131V38.2858H65.5615Z" fill="white"/>
<path d="M72.2217 38.2858H71.3501L69.0309 34.7498C68.9563 34.6378 68.879 34.4992 68.799 34.3338C68.815 34.4618 68.823 34.6005 68.823 34.7498V38.2858H67.8714V32.6858H68.799L71.0622 36.1658C71.1155 36.2458 71.1928 36.3872 71.2941 36.5898C71.2781 36.4458 71.2701 36.3045 71.2701 36.1658V32.6858H72.2217V38.2858Z" fill="white"/>
<path d="M75.8353 38.3818C75.4888 38.3818 75.1742 38.3258 74.8917 38.2138C74.6091 38.1018 74.3745 37.9525 74.1879 37.7658C74.0067 37.5738 73.8521 37.3525 73.7241 37.1018C73.6015 36.8512 73.5135 36.5925 73.4602 36.3258C73.4069 36.0538 73.3802 35.7738 73.3802 35.4858C73.3802 35.1978 73.4069 34.9205 73.4602 34.6538C73.5135 34.3818 73.6015 34.1205 73.7241 33.8698C73.8521 33.6192 74.0067 33.4005 74.1879 33.2138C74.3745 33.0218 74.6091 32.8698 74.8917 32.7578C75.1742 32.6458 75.4888 32.5898 75.8353 32.5898C76.2672 32.5898 76.6457 32.6752 76.9709 32.8458C77.3015 33.0112 77.5574 33.2378 77.7386 33.5258C77.9252 33.8085 78.0638 34.1152 78.1545 34.4458C78.2451 34.7765 78.2904 35.1232 78.2904 35.4858C78.2904 35.8485 78.2451 36.1952 78.1545 36.5258C78.0638 36.8565 77.9252 37.1658 77.7386 37.4538C77.5574 37.7365 77.3015 37.9632 76.9709 38.1338C76.6457 38.2992 76.2672 38.3818 75.8353 38.3818ZM75.8353 37.4618C76.0912 37.4618 76.3178 37.4005 76.5151 37.2778C76.7123 37.1552 76.8643 36.9952 76.9709 36.7978C77.0829 36.5952 77.1655 36.3845 77.2188 36.1658C77.2721 35.9418 77.2988 35.7152 77.2988 35.4858C77.2988 35.2405 77.2721 35.0085 77.2188 34.7898C77.1655 34.5658 77.0829 34.3552 76.9709 34.1578C76.8643 33.9605 76.7123 33.8032 76.5151 33.6858C76.3232 33.5685 76.0966 33.5098 75.8353 33.5098C75.4941 33.5098 75.2089 33.6192 74.9796 33.8378C74.7504 34.0512 74.5905 34.2992 74.4998 34.5818C74.4145 34.8645 74.3719 35.1658 74.3719 35.4858C74.3719 35.7258 74.3985 35.9578 74.4518 36.1818C74.5052 36.4058 74.5851 36.6165 74.6918 36.8138C74.8037 37.0112 74.9557 37.1685 75.1476 37.2858C75.3448 37.4032 75.5741 37.4618 75.8353 37.4618Z" fill="white"/>
<path d="M79.453 38.2858V32.6858H80.4126V37.3658H83.1316V38.2858H79.453Z" fill="white"/>
<path d="M86.1128 38.3818C85.7662 38.3818 85.4517 38.3258 85.1691 38.2138C84.8866 38.1018 84.652 37.9525 84.4654 37.7658C84.2841 37.5738 84.1295 37.3525 84.0016 37.1018C83.8789 36.8512 83.791 36.5925 83.7377 36.3258C83.6843 36.0538 83.6577 35.7738 83.6577 35.4858C83.6577 35.1978 83.6843 34.9205 83.7377 34.6538C83.791 34.3818 83.8789 34.1205 84.0016 33.8698C84.1295 33.6192 84.2841 33.4005 84.4654 33.2138C84.652 33.0218 84.8866 32.8698 85.1691 32.7578C85.4517 32.6458 85.7662 32.5898 86.1128 32.5898C86.5446 32.5898 86.9231 32.6752 87.2483 32.8458C87.5789 33.0112 87.8348 33.2378 88.0161 33.5258C88.2027 33.8085 88.3413 34.1152 88.4319 34.4458C88.5225 34.7765 88.5679 35.1232 88.5679 35.4858C88.5679 35.8485 88.5225 36.1952 88.4319 36.5258C88.3413 36.8565 88.2027 37.1658 88.0161 37.4538C87.8348 37.7365 87.5789 37.9632 87.2483 38.1338C86.9231 38.2992 86.5446 38.3818 86.1128 38.3818ZM86.1128 37.4618C86.3687 37.4618 86.5953 37.4005 86.7925 37.2778C86.9898 37.1552 87.1417 36.9952 87.2483 36.7978C87.3603 36.5952 87.4429 36.3845 87.4963 36.1658C87.5496 35.9418 87.5762 35.7152 87.5762 35.4858C87.5762 35.2405 87.5496 35.0085 87.4963 34.7898C87.4429 34.5658 87.3603 34.3552 87.2483 34.1578C87.1417 33.9605 86.9898 33.8032 86.7925 33.6858C86.6006 33.5685 86.374 33.5098 86.1128 33.5098C85.7716 33.5098 85.4863 33.6192 85.2571 33.8378C85.0278 34.0512 84.8679 34.2992 84.7773 34.5818C84.692 34.8645 84.6493 35.1658 84.6493 35.4858C84.6493 35.7258 84.676 35.9578 84.7293 36.1818C84.7826 36.4058 84.8626 36.6165 84.9692 36.8138C85.0812 37.0112 85.2331 37.1685 85.425 37.2858C85.6223 37.4032 85.8515 37.4618 86.1128 37.4618Z" fill="white"/>
<path d="M91.9856 38.3818C91.5697 38.3818 91.1992 38.3018 90.874 38.1418C90.5541 37.9765 90.2982 37.7552 90.1063 37.4778C89.9144 37.2005 89.7704 36.8938 89.6744 36.5578C89.5785 36.2218 89.5305 35.8645 89.5305 35.4858C89.5305 35.2085 89.5598 34.9338 89.6185 34.6618C89.6824 34.3898 89.7811 34.1285 89.9144 33.8778C90.0476 33.6272 90.2076 33.4085 90.3942 33.2218C90.5808 33.0298 90.81 32.8778 91.0819 32.7658C91.3592 32.6485 91.6604 32.5898 91.9856 32.5898C92.4761 32.5898 92.8706 32.6912 93.1691 32.8938C93.4677 33.0912 93.7263 33.3658 93.9449 33.7178L93.0892 34.2058C92.78 33.7472 92.4121 33.5178 91.9856 33.5178C91.719 33.5178 91.4844 33.5792 91.2818 33.7018C91.0846 33.8192 90.9326 33.9792 90.826 34.1818C90.7194 34.3792 90.6421 34.5872 90.5941 34.8058C90.5461 35.0245 90.5221 35.2512 90.5221 35.4858C90.5221 36.0405 90.6448 36.5072 90.89 36.8858C91.1352 37.2645 91.5004 37.4538 91.9856 37.4538C92.2948 37.4538 92.5507 37.3525 92.7533 37.1498C92.9612 36.9472 93.0652 36.6992 93.0652 36.4058V36.3178H92.0816V35.4138H94.0408V36.1898C94.0408 36.8778 93.8489 37.4165 93.465 37.8058C93.0812 38.1898 92.588 38.3818 91.9856 38.3818Z" fill="white"/>
<path d="M95.2215 38.2858V32.6858H96.1812V38.2858H95.2215Z" fill="white"/>
<path d="M97.5791 38.2858V32.6858H101.226V33.5898H98.5387V34.9418H100.194V35.8458H98.5387V37.3818H101.402V38.2858H97.5791Z" fill="white"/>
<path d="M104.275 38.3818C103.763 38.3818 103.321 38.2538 102.947 37.9978C102.579 37.7365 102.318 37.3818 102.164 36.9338L103.051 36.6058C103.169 36.8672 103.337 37.0778 103.555 37.2378C103.774 37.3925 104.024 37.4698 104.307 37.4698C104.6 37.4698 104.832 37.4032 105.003 37.2698C105.179 37.1365 105.266 36.9445 105.266 36.6938C105.266 36.5925 105.242 36.4992 105.194 36.4138C105.147 36.3232 105.091 36.2485 105.027 36.1898C104.968 36.1312 104.877 36.0725 104.755 36.0138C104.632 35.9552 104.528 35.9098 104.443 35.8778C104.357 35.8405 104.232 35.7952 104.067 35.7418C103.854 35.6672 103.688 35.6085 103.571 35.5658C103.459 35.5232 103.313 35.4538 103.131 35.3578C102.955 35.2565 102.819 35.1552 102.723 35.0538C102.633 34.9525 102.55 34.8192 102.476 34.6538C102.406 34.4832 102.372 34.2965 102.372 34.0938C102.372 33.6672 102.537 33.3098 102.867 33.0218C103.198 32.7338 103.646 32.5898 104.211 32.5898C104.68 32.5898 105.069 32.7018 105.378 32.9258C105.688 33.1445 105.896 33.4325 106.002 33.7898L105.139 34.0778C104.968 33.6938 104.637 33.5018 104.147 33.5018C103.896 33.5018 103.699 33.5552 103.555 33.6618C103.416 33.7632 103.347 33.9098 103.347 34.1018C103.347 34.2298 103.4 34.3445 103.507 34.4458C103.619 34.5472 103.736 34.6245 103.859 34.6778C103.987 34.7258 104.174 34.7898 104.419 34.8698C104.579 34.9285 104.699 34.9738 104.779 35.0058C104.864 35.0325 104.981 35.0805 105.131 35.1498C105.28 35.2192 105.397 35.2832 105.482 35.3418C105.568 35.3952 105.664 35.4698 105.77 35.5658C105.882 35.6618 105.968 35.7632 106.026 35.8698C106.085 35.9712 106.135 36.0938 106.178 36.2378C106.221 36.3765 106.242 36.5285 106.242 36.6938C106.242 37.2165 106.056 37.6298 105.682 37.9338C105.314 38.2325 104.845 38.3818 104.275 38.3818Z" fill="white"/>
<path d="M111.36 33.6058V38.2858H110.4V33.6058H108.809V32.6858H112.951V33.6058H111.36Z" fill="white"/>
<path d="M113.948 38.2858V32.6858H116.427C117.072 32.6858 117.539 32.8458 117.827 33.1658C118.12 33.4858 118.266 33.8938 118.266 34.3898C118.266 34.7365 118.168 35.0618 117.971 35.3658C117.773 35.6698 117.488 35.8778 117.115 35.9898L118.234 38.2858H117.155L116.075 36.0938H114.908V38.2858H113.948ZM114.908 35.1818H116.443C116.731 35.1818 116.942 35.1072 117.075 34.9578C117.208 34.8085 117.275 34.6192 117.275 34.3898C117.275 34.1658 117.211 33.9792 117.083 33.8298C116.955 33.6752 116.742 33.5978 116.443 33.5978H114.908V35.1818Z" fill="white"/>
<path d="M122.993 38.2858L122.553 37.0618H120.338L119.898 38.2858H118.882L120.97 32.6858H121.921L124.001 38.2858H122.993ZM122.249 36.1978L121.633 34.5178C121.553 34.3152 121.492 34.1258 121.45 33.9498C121.407 34.1045 121.346 34.2938 121.266 34.5178L120.642 36.1978H122.249Z" fill="white"/>
<path d="M124.858 32.6858H126.585C126.964 32.6858 127.308 32.7392 127.617 32.8458C127.926 32.9525 128.182 33.0938 128.385 33.2698C128.587 33.4458 128.755 33.6565 128.889 33.9018C129.027 34.1418 129.126 34.3952 129.184 34.6618C129.248 34.9232 129.28 35.1978 129.28 35.4858C129.28 35.7525 129.251 36.0138 129.192 36.2698C129.139 36.5258 129.043 36.7792 128.905 37.0298C128.771 37.2752 128.603 37.4912 128.401 37.6778C128.198 37.8592 127.937 38.0058 127.617 38.1178C127.302 38.2298 126.948 38.2858 126.553 38.2858H124.858V32.6858ZM126.689 37.3818C126.972 37.3818 127.22 37.3258 127.433 37.2138C127.652 37.1018 127.82 36.9525 127.937 36.7658C128.059 36.5738 128.147 36.3712 128.201 36.1578C128.259 35.9445 128.289 35.7205 128.289 35.4858C128.289 34.9632 128.161 34.5178 127.905 34.1498C127.649 33.7765 127.273 33.5898 126.777 33.5898H125.818V37.3818H126.689Z" fill="white"/>
<path d="M130.482 38.2858V32.6858H131.441V38.2858H130.482Z" fill="white"/>
<path d="M137.19 38.2858H136.318L133.999 34.7498C133.924 34.6378 133.847 34.4992 133.767 34.3338C133.783 34.4618 133.791 34.6005 133.791 34.7498V38.2858H132.839V32.6858H133.767L136.03 36.1658C136.084 36.2458 136.161 36.3872 136.262 36.5898C136.246 36.4458 136.238 36.3045 136.238 36.1658V32.6858H137.19V38.2858Z" fill="white"/>
<path d="M140.803 38.3818C140.388 38.3818 140.017 38.3018 139.692 38.1418C139.372 37.9765 139.116 37.7552 138.924 37.4778C138.732 37.2005 138.588 36.8938 138.492 36.5578C138.396 36.2218 138.348 35.8645 138.348 35.4858C138.348 35.2085 138.378 34.9338 138.436 34.6618C138.5 34.3898 138.599 34.1285 138.732 33.8778C138.865 33.6272 139.025 33.4085 139.212 33.2218C139.399 33.0298 139.628 32.8778 139.9 32.7658C140.177 32.6485 140.478 32.5898 140.803 32.5898C141.294 32.5898 141.688 32.6912 141.987 32.8938C142.286 33.0912 142.544 33.3658 142.763 33.7178L141.907 34.2058C141.598 33.7472 141.23 33.5178 140.803 33.5178C140.537 33.5178 140.302 33.5792 140.1 33.7018C139.902 33.8192 139.75 33.9792 139.644 34.1818C139.537 34.3792 139.46 34.5872 139.412 34.8058C139.364 35.0245 139.34 35.2512 139.34 35.4858C139.34 36.0405 139.463 36.5072 139.708 36.8858C139.953 37.2645 140.318 37.4538 140.803 37.4538C141.113 37.4538 141.369 37.3525 141.571 37.1498C141.779 36.9472 141.883 36.6992 141.883 36.4058V36.3178H140.899V35.4138H142.859V36.1898C142.859 36.8778 142.667 37.4165 142.283 37.8058C141.899 38.1898 141.406 38.3818 140.803 38.3818Z" fill="white"/>
<path d="M145.96 38.2858V32.6858H146.919V37.3658H149.638V38.2858H145.96Z" fill="white"/>
<path d="M151.185 38.2058C151.062 38.3232 150.91 38.3818 150.729 38.3818C150.548 38.3818 150.396 38.3232 150.273 38.2058C150.151 38.0832 150.089 37.9338 150.089 37.7578C150.089 37.5818 150.151 37.4352 150.273 37.3178C150.396 37.1952 150.548 37.1338 150.729 37.1338C150.91 37.1338 151.062 37.1952 151.185 37.3178C151.308 37.4405 151.369 37.5872 151.369 37.7578C151.369 37.9338 151.308 38.0832 151.185 38.2058Z" fill="white"/>
<path d="M152.34 38.2858V32.6858H153.3V37.3658H156.019V38.2858H152.34Z" fill="white"/>
<path d="M157.565 38.2058C157.443 38.3232 157.291 38.3818 157.11 38.3818C156.928 38.3818 156.776 38.3232 156.654 38.2058C156.531 38.0832 156.47 37.9338 156.47 37.7578C156.47 37.5818 156.531 37.4352 156.654 37.3178C156.776 37.1952 156.928 37.1338 157.11 37.1338C157.291 37.1338 157.443 37.1952 157.565 37.3178C157.688 37.4405 157.749 37.5872 157.749 37.7578C157.749 37.9338 157.688 38.0832 157.565 38.2058Z" fill="white"/>
<path d="M160.707 38.3818C160.372 38.3818 160.068 38.3258 159.796 38.2138C159.524 38.1018 159.3 37.9525 159.124 37.7658C158.953 37.5792 158.809 37.3578 158.692 37.1018C158.575 36.8458 158.49 36.5845 158.436 36.3178C158.388 36.0512 158.364 35.7738 158.364 35.4858C158.364 35.1445 158.407 34.8112 158.492 34.4858C158.578 34.1605 158.708 33.8538 158.884 33.5658C159.06 33.2725 159.305 33.0378 159.62 32.8618C159.934 32.6805 160.297 32.5898 160.707 32.5898C161.203 32.5898 161.619 32.7072 161.955 32.9418C162.291 33.1712 162.525 33.4512 162.659 33.7818L161.795 34.1738C161.646 33.9445 161.488 33.7765 161.323 33.6698C161.163 33.5632 160.958 33.5098 160.707 33.5098C160.462 33.5098 160.246 33.5712 160.06 33.6938C159.878 33.8112 159.737 33.9712 159.636 34.1738C159.54 34.3712 159.468 34.5818 159.42 34.8058C159.377 35.0245 159.356 35.2512 159.356 35.4858C159.356 36.0085 159.471 36.4672 159.7 36.8618C159.934 37.2565 160.27 37.4538 160.707 37.4538C161.134 37.4538 161.491 37.2138 161.779 36.7338L162.667 37.0698C162.278 37.9445 161.624 38.3818 160.707 38.3818Z" fill="white"/>
<path d="M7.05452 23.4237C11.2244 18.9729 12.2811 17.9173 12.5382 17.8032C12.9666 17.632 13.5093 17.6605 13.8806 17.8317C14.0805 17.9173 15.3086 19.1441 17.3935 21.341C19.1643 23.1955 20.6209 24.7076 20.6495 24.7076C20.7066 24.7361 30.503 14.4936 31.3312 13.5521L31.6168 13.2382L30.4744 12.1255L29.332 11.0128L33.9017 9.6719C34.9013 9.3866 35.8438 9.10129 36.615 8.87304C33.0163 3.5378 26.9328 0 19.9926 0C8.93954 0 0 8.93011 0 19.9715C0 23.1384 0.742583 26.1056 2.02782 28.7589C2.74184 27.9886 4.74109 25.8488 7.05452 23.4237Z" fill="white"/>
<path d="M37.8717 11.0984C37.7289 11.6975 37.5575 12.3823 37.3861 13.067C36.7863 15.5777 36.2437 17.6319 36.2151 17.6319C36.1866 17.6319 35.6439 17.1469 35.0727 16.5763L33.9874 15.5206L33.3876 16.1198C33.0449 16.4622 30.3316 19.3152 27.3327 22.4821C24.3338 25.649 21.7348 28.3024 21.592 28.4165C21.1065 28.7874 20.3067 28.7874 19.8212 28.445C19.707 28.3595 18.1647 26.7903 16.4225 24.9643C14.6803 23.1383 13.2237 21.6547 13.1951 21.6833C13.1665 21.6833 11.1102 23.8516 8.62537 26.505C5.08383 30.271 4.02708 31.3266 3.74148 31.4978C3.71291 31.5264 3.68435 31.5264 3.65579 31.5264C7.28302 36.6334 13.2522 40 19.9926 40C31.0456 40 39.9852 31.0699 39.9852 20.0285C39.9566 16.8045 39.1855 13.7803 37.8717 11.0984Z" fill="white"/>
</svg>
