<svg width="32" height="32" viewBox="0 0 32 32" fill="none" xmlns="http://www.w3.org/2000/svg">
<g opacity="0.5">
<path fill-rule="evenodd" clip-rule="evenodd" d="M9.24997 10.3779C9.24997 10.0787 9.3688 9.79186 9.58031 9.58034C9.79183 9.36883 10.0787 9.25 10.3778 9.25H21.6208C21.7691 9.24976 21.9159 9.27876 22.0529 9.33534C22.1899 9.39192 22.3144 9.47497 22.4193 9.57973C22.5242 9.68449 22.6074 9.80891 22.6641 9.94587C22.7208 10.0828 22.75 10.2296 22.7499 10.3779V21.6209C22.7501 21.7691 22.721 21.916 22.6644 22.053C22.6077 22.19 22.5246 22.3145 22.4198 22.4194C22.315 22.5243 22.1905 22.6074 22.0535 22.6642C21.9165 22.7209 21.7697 22.75 21.6214 22.75H10.3778C10.2297 22.75 10.083 22.7208 9.94607 22.664C9.8092 22.6073 9.68483 22.5242 9.58009 22.4194C9.47536 22.3146 9.39229 22.1902 9.33565 22.0533C9.279 21.9164 9.24989 21.7696 9.24997 21.6215V10.3779ZM14.5935 14.3972H16.4215V15.3152C16.6854 14.7874 17.3604 14.3125 18.3747 14.3125C20.3193 14.3125 20.7802 15.3636 20.7802 17.2923V20.8649H18.8122V17.7317C18.8122 16.6332 18.5484 16.0135 17.8783 16.0135C16.9486 16.0135 16.562 16.6817 16.562 17.7317V20.8649H14.5935V14.3972ZM11.2185 20.7808H13.187V14.3125H11.2185V20.7802V20.7808ZM13.4687 12.2028C13.4724 12.3714 13.4424 12.5389 13.3805 12.6957C13.3186 12.8526 13.2259 12.9954 13.108 13.1159C12.9901 13.2364 12.8494 13.3322 12.694 13.3976C12.5386 13.4629 12.3717 13.4966 12.2031 13.4966C12.0345 13.4966 11.8676 13.4629 11.7122 13.3976C11.5568 13.3322 11.416 13.2364 11.2981 13.1159C11.1802 12.9954 11.0876 12.8526 11.0257 12.6957C10.9637 12.5389 10.9338 12.3714 10.9375 12.2028C10.9447 11.872 11.0813 11.5571 11.3178 11.3257C11.5544 11.0943 11.8722 10.9648 12.2031 10.9648C12.534 10.9648 12.8518 11.0943 13.0883 11.3257C13.3249 11.5571 13.4614 11.872 13.4687 12.2028Z" fill="white"/>
</g>
</svg>
