<svg width="48" height="48" viewBox="0 0 48 48" fill="none" xmlns="http://www.w3.org/2000/svg">
<path fill-rule="evenodd" clip-rule="evenodd" d="M23.2966 4.00847C19.9851 4.19206 16.8408 5.62405 14.5378 7.99745C12.5051 10.0921 11.3132 12.508 10.8622 15.448C10.7246 16.3451 10.7228 18.9172 10.8595 19.6685C11.3911 22.5938 13.0582 25.8785 15.6876 29.1813C16.0038 29.5785 16.2625 29.9218 16.2625 29.9443C16.2625 29.9668 14.8459 29.9852 13.1144 29.9852H9.96651L6.98326 36.6481L4 43.311L14 43.3308C19.5 43.3417 28.5 43.3417 34 43.3308L44 43.311L41.0167 36.6481L38.0335 29.9852H34.8856C33.1541 29.9852 31.7375 29.9668 31.7375 29.9443C31.7375 29.9218 31.9963 29.5785 32.3124 29.1813C34.9418 25.8785 36.6089 22.5938 37.1405 19.6685C37.2772 18.9172 37.2754 16.3451 37.1378 15.448C36.6868 12.508 35.4949 10.0921 33.4622 7.99745C31.0808 5.54332 27.9347 4.1497 24.4689 4.01378C24.0606 3.99776 23.533 3.99534 23.2966 4.00847ZM26.3838 7.34757C27.3448 7.59408 27.8257 7.77743 28.7162 8.23692C31.5729 9.71081 33.5575 12.4901 34.0887 15.7606C34.2474 16.7382 34.2075 18.7175 34.0114 19.5903C33.4044 22.2917 31.735 25.176 28.7348 28.7072C27.9254 29.6598 24.1447 33.5023 24.0168 33.5023C23.9139 33.5023 21.3623 31.0127 20.4449 30.0171C16.7717 26.0308 14.6748 22.6444 13.9886 19.5903C13.7925 18.7175 13.7526 16.7382 13.9113 15.7606C14.5938 11.5584 17.6834 8.23059 21.7384 7.33022C22.8217 7.08965 22.7561 7.09512 24.2345 7.12217C25.3937 7.14327 25.7213 7.17766 26.3838 7.34757ZM22.5457 11.2193C21.9192 11.3734 20.9764 11.799 20.4323 12.1734C19.2246 13.0043 18.2774 14.4408 17.9414 15.9511C17.755 16.789 17.8129 18.3139 18.0588 19.0432C18.8902 21.5085 20.8936 23.1692 23.3161 23.4012C26.3664 23.6933 28.9452 21.9969 29.9412 19.0432C30.1871 18.3139 30.245 16.789 30.0586 15.9511C29.722 14.4379 28.7756 13.0044 27.5622 12.1695C27.0072 11.7878 25.9855 11.338 25.3524 11.1967C24.6051 11.03 23.2718 11.0407 22.5457 11.2193ZM24.8614 14.2443C27.1071 14.9112 27.8667 17.6751 26.274 19.3837C24.6276 21.1496 21.6823 20.4389 20.9984 18.1107C20.4235 16.1534 21.9165 14.1483 23.9662 14.1248C24.2271 14.1218 24.6299 14.1756 24.8614 14.2443ZM20.3348 34.2643C21.5295 35.409 22.7403 36.491 23.6303 37.209C23.9648 37.4787 24.017 37.498 24.1383 37.3961C25.8362 35.9698 26.4891 35.3909 27.6116 34.3163L28.9534 33.0318L32.5043 33.0521L36.0553 33.0724L37.6476 36.6286C38.5232 38.5844 39.2399 40.1935 39.2402 40.2043C39.2404 40.215 32.3786 40.2238 23.9916 40.2238C11.8225 40.2238 8.75101 40.2041 8.78407 40.1261C8.80682 40.0724 9.46505 38.604 10.2469 36.863C11.0286 35.1221 11.7335 33.5482 11.8132 33.3655L11.9583 33.0333H15.5043H19.0502L20.3348 34.2643Z" fill="#F0A17D"/>
</svg>
