<svg width="22" height="23" viewBox="0 0 22 23" fill="none" xmlns="http://www.w3.org/2000/svg">
<path d="M13.5 13.1875C12.5391 13.1875 12.077 13.75 10.5 13.75C8.92299 13.75 8.46429 13.1875 7.5 13.1875C5.01562 13.1875 3 15.3039 3 17.9125V18.8125C3 19.7441 3.71987 20.5 4.60714 20.5H16.3929C17.2801 20.5 18 19.7441 18 18.8125V17.9125C18 15.3039 15.9844 13.1875 13.5 13.1875ZM16.3929 18.8125H4.60714V17.9125C4.60714 16.2391 5.90625 14.875 7.5 14.875C7.98884 14.875 8.78237 15.4375 10.5 15.4375C12.231 15.4375 13.0078 14.875 13.5 14.875C15.0938 14.875 16.3929 16.2391 16.3929 17.9125V18.8125ZM10.5 12.625C13.1618 12.625 15.3214 10.3574 15.3214 7.5625C15.3214 4.76758 13.1618 2.5 10.5 2.5C7.83817 2.5 5.67857 4.76758 5.67857 7.5625C5.67857 10.3574 7.83817 12.625 10.5 12.625ZM10.5 4.1875C12.2712 4.1875 13.7143 5.70273 13.7143 7.5625C13.7143 9.42227 12.2712 10.9375 10.5 10.9375C8.72879 10.9375 7.28571 9.42227 7.28571 7.5625C7.28571 5.70273 8.72879 4.1875 10.5 4.1875Z" fill="#7F7F7F"/>
</svg>
