<svg width="32" height="32" viewBox="0 0 32 32" fill="none" xmlns="http://www.w3.org/2000/svg">
<g opacity="0.5">
<path d="M22.2741 17.1277C22.3433 16.747 22.3804 16.3578 22.3804 15.9687C22.3804 15.1058 22.2116 14.2683 21.8791 13.4815C21.5585 12.7202 21.0977 12.0366 20.5121 11.4495C19.9313 10.8658 19.2429 10.401 18.4852 10.0807C17.6987 9.74743 16.865 9.57824 16.0042 9.57824C15.5992 9.57824 15.1924 9.61715 14.7975 9.69329C14.2511 9.40299 13.6422 9.25082 13.0237 9.25C12.0162 9.25 11.0677 9.64422 10.3555 10.3582C10.004 10.7087 9.72537 11.1256 9.53562 11.5848C9.34588 12.0439 9.2488 12.5362 9.25001 13.0332C9.25001 13.6761 9.41541 14.3089 9.72426 14.8672C9.66181 15.2293 9.62806 15.5999 9.62806 15.9687C9.62806 16.8316 9.79683 17.6691 10.1293 18.4559C10.45 19.2172 10.909 19.9008 11.4947 20.4879C12.0803 21.075 12.7621 21.5352 13.5216 21.8567C14.3081 22.19 15.1418 22.3592 16.0025 22.3592C16.3772 22.3592 16.7519 22.3253 17.1198 22.2593C17.6852 22.5791 18.3231 22.75 18.9763 22.75C19.9838 22.75 20.9323 22.3575 21.6445 21.6418C22.3584 20.9278 22.75 19.9769 22.75 18.9668C22.7517 18.3239 22.5863 17.6894 22.2741 17.1277ZM16.0295 19.8839C13.7646 19.8839 12.752 18.7672 12.752 17.9314C12.752 17.5016 13.0676 17.2021 13.503 17.2021C14.4718 17.2021 14.222 18.598 16.0295 18.598C16.9561 18.598 17.4675 18.0938 17.4675 17.5777C17.4675 17.2681 17.3156 16.923 16.7046 16.7724L14.6895 16.2682C13.0676 15.8604 12.7723 14.9806 12.7723 14.1549C12.7723 12.4393 14.384 11.7947 15.8979 11.7947C17.2919 11.7947 18.9358 12.5679 18.9358 13.5966C18.9358 14.0382 18.5543 14.2937 18.1189 14.2937C17.2919 14.2937 17.4438 13.1465 15.7781 13.1465C14.9511 13.1465 14.4937 13.5222 14.4937 14.0585C14.4937 14.5948 15.1469 14.7657 15.7139 14.896L17.2059 15.2276C18.8396 15.5931 19.2531 16.549 19.2531 17.4491C19.2531 18.8416 18.1847 19.8839 16.0295 19.8839Z" fill="white"/>
</g>
</svg>
