<svg width="32" height="32" viewBox="0 0 32 32" fill="none" xmlns="http://www.w3.org/2000/svg">
<g opacity="0.5">
<path d="M22.7517 11.7865C22.2139 12.0186 21.6285 12.1856 21.0256 12.2506C21.6516 11.8787 22.1203 11.2912 22.3439 10.5982C21.7565 10.9477 21.113 11.1927 20.442 11.3225C20.1615 11.0226 19.8223 10.7838 19.4455 10.6208C19.0687 10.4578 18.6623 10.3741 18.2517 10.375C16.5906 10.375 15.2547 11.7215 15.2547 13.3738C15.2547 13.6059 15.2828 13.8379 15.3285 14.0611C12.8412 13.9311 10.6228 12.7428 9.14805 10.9234C8.87932 11.3824 8.7385 11.9051 8.74023 12.4369C8.74023 13.4775 9.26933 14.3951 10.0762 14.9348C9.60069 14.9161 9.13634 14.7854 8.7209 14.5533V14.5902C8.7209 16.0475 9.75098 17.2551 11.1238 17.5328C10.8661 17.5998 10.6009 17.634 10.3346 17.6348C10.1395 17.6348 9.95488 17.6154 9.76855 17.5891C10.1482 18.7774 11.2539 19.6404 12.5705 19.6686C11.5404 20.4754 10.2502 20.95 8.84922 20.95C8.59785 20.95 8.36582 20.9412 8.125 20.9131C9.4539 21.7656 11.0307 22.2578 12.7287 22.2578C18.2412 22.2578 21.2576 17.691 21.2576 13.7272C21.2576 13.5971 21.2576 13.467 21.2488 13.3369C21.8324 12.9098 22.3439 12.3807 22.7517 11.7865Z" fill="white"/>
</g>
</svg>
